<svg width="804" height="168" viewBox="0 0 804 168" xmlns="http://www.w3.org/2000/svg">
<rect width="804" height="168" fill="#14151f"/>
<line x1="0" y1="4" x2="804" y2="4" stroke="#3a3d52" stroke-width="2"/>
<rect x="37" y="37" width="16" height="16" fill="none" stroke="#33e6ff" stroke-width="2"/>
<rect x="37" y="55" width="16" height="16" fill="none" stroke="#33e6ff" stroke-width="2"/>
<rect x="37" y="73" width="16" height="16" fill="none" stroke="#33e6ff" stroke-width="2"/>
<rect x="37" y="91" width="16" height="16" fill="none" stroke="#33e6ff" stroke-width="2"/>
<rect x="37" y="109" width="16" height="16" fill="none" stroke="#33e6ff" stroke-width="2"/>
<rect x="55" y="109" width="16" height="16" fill="none" stroke="#33e6ff" stroke-width="2"/>
<rect x="73" y="109" width="16" height="16" fill="none" stroke="#33e6ff" stroke-width="2"/>
<rect x="91" y="109" width="16" height="16" fill="none" stroke="#33e6ff" stroke-width="2"/>
<rect x="109" y="109" width="16" height="16" fill="none" stroke="#33e6ff" stroke-width="2"/>
<rect x="161" y="37" width="16" height="16" fill="none" stroke="#33e6ff" stroke-width="2"/>
<rect x="179" y="37" width="16" height="16" fill="none" stroke="#33e6ff" stroke-width="2"/>
<rect x="197" y="37" width="16" height="16" fill="none" stroke="#33e6ff" stroke-width="2"/>
<rect x="143" y="55" width="16" height="16" fill="none" stroke="#33e6ff" stroke-width="2"/>
<rect x="215" y="55" width="16" height="16" fill="none" stroke="#33e6ff" stroke-width="2"/>
<rect x="143" y="73" width="16" height="16" fill="none" stroke="#33e6ff" stroke-width="2"/>
<rect x="161" y="73" width="16" height="16" fill="none" stroke="#33e6ff" stroke-width="2"/>
<rect x="179" y="73" width="16" height="16" fill="none" stroke="#33e6ff" stroke-width="2"/>
<rect x="197" y="73" width="16" height="16" fill="none" stroke="#33e6ff" stroke-width="2"/>
<rect x="215" y="73" width="16" height="16" fill="none" stroke="#33e6ff" stroke-width="2"/>
<rect x="143" y="91" width="16" height="16" fill="none" stroke="#33e6ff" stroke-width="2"/>
<rect x="215" y="91" width="16" height="16" fill="none" stroke="#33e6ff" stroke-width="2"/>
<rect x="143" y="109" width="16" height="16" fill="none" stroke="#33e6ff" stroke-width="2"/>
<rect x="215" y="109" width="16" height="16" fill="none" stroke="#33e6ff" stroke-width="2"/>
<rect x="249" y="37" width="16" height="16" fill="none" stroke="#33e6ff" stroke-width="2"/>
<rect x="321" y="37" width="16" height="16" fill="none" stroke="#33e6ff" stroke-width="2"/>
<rect x="249" y="55" width="16" height="16" fill="none" stroke="#33e6ff" stroke-width="2"/>
<rect x="321" y="55" width="16" height="16" fill="none" stroke="#33e6ff" stroke-width="2"/>
<rect x="249" y="73" width="16" height="16" fill="none" stroke="#33e6ff" stroke-width="2"/>
<rect x="321" y="73" width="16" height="16" fill="none" stroke="#33e6ff" stroke-width="2"/>
<rect x="267" y="91" width="16" height="16" fill="none" stroke="#33e6ff" stroke-width="2"/>
<rect x="303" y="91" width="16" height="16" fill="none" stroke="#33e6ff" stroke-width="2"/>
<rect x="285" y="109" width="16" height="16" fill="none" stroke="#33e6ff" stroke-width="2"/>
<rect x="373" y="37" width="16" height="16" fill="none" stroke="#33e6ff" stroke-width="2"/>
<rect x="391" y="37" width="16" height="16" fill="none" stroke="#33e6ff" stroke-width="2"/>
<rect x="409" y="37" width="16" height="16" fill="none" stroke="#33e6ff" stroke-width="2"/>
<rect x="355" y="55" width="16" height="16" fill="none" stroke="#33e6ff" stroke-width="2"/>
<rect x="427" y="55" width="16" height="16" fill="none" stroke="#33e6ff" stroke-width="2"/>
<rect x="355" y="73" width="16" height="16" fill="none" stroke="#33e6ff" stroke-width="2"/>
<rect x="373" y="73" width="16" height="16" fill="none" stroke="#33e6ff" stroke-width="2"/>
<rect x="391" y="73" width="16" height="16" fill="none" stroke="#33e6ff" stroke-width="2"/>
<rect x="409" y="73" width="16" height="16" fill="none" stroke="#33e6ff" stroke-width="2"/>
<rect x="427" y="73" width="16" height="16" fill="none" stroke="#33e6ff" stroke-width="2"/>
<rect x="355" y="91" width="16" height="16" fill="none" stroke="#33e6ff" stroke-width="2"/>
<rect x="427" y="91" width="16" height="16" fill="none" stroke="#33e6ff" stroke-width="2"/>
<rect x="355" y="109" width="16" height="16" fill="none" stroke="#33e6ff" stroke-width="2"/>
<rect x="427" y="109" width="16" height="16" fill="none" stroke="#33e6ff" stroke-width="2"/>
<rect x="461" y="37" width="16" height="16" fill="none" stroke="#33e6ff" stroke-width="2"/>
<rect x="533" y="37" width="16" height="16" fill="none" stroke="#33e6ff" stroke-width="2"/>
<rect x="461" y="55" width="16" height="16" fill="none" stroke="#33e6ff" stroke-width="2"/>
<rect x="479" y="55" width="16" height="16" fill="none" stroke="#33e6ff" stroke-width="2"/>
<rect x="533" y="55" width="16" height="16" fill="none" stroke="#33e6ff" stroke-width="2"/>
<rect x="461" y="73" width="16" height="16" fill="none" stroke="#33e6ff" stroke-width="2"/>
<rect x="497" y="73" width="16" height="16" fill="none" stroke="#33e6ff" stroke-width="2"/>
<rect x="533" y="73" width="16" height="16" fill="none" stroke="#33e6ff" stroke-width="2"/>
<rect x="461" y="91" width="16" height="16" fill="none" stroke="#33e6ff" stroke-width="2"/>
<rect x="515" y="91" width="16" height="16" fill="none" stroke="#33e6ff" stroke-width="2"/>
<rect x="533" y="91" width="16" height="16" fill="none" stroke="#33e6ff" stroke-width="2"/>
<rect x="461" y="109" width="16" height="16" fill="none" stroke="#33e6ff" stroke-width="2"/>
<rect x="533" y="109" width="16" height="16" fill="none" stroke="#33e6ff" stroke-width="2"/>
<rect x="567" y="37" width="16" height="16" fill="none" stroke="#33e6ff" stroke-width="2"/>
<rect x="639" y="37" width="16" height="16" fill="none" stroke="#33e6ff" stroke-width="2"/>
<rect x="567" y="55" width="16" height="16" fill="none" stroke="#33e6ff" stroke-width="2"/>
<rect x="639" y="55" width="16" height="16" fill="none" stroke="#33e6ff" stroke-width="2"/>
<rect x="585" y="73" width="16" height="16" fill="none" stroke="#33e6ff" stroke-width="2"/>
<rect x="621" y="73" width="16" height="16" fill="none" stroke="#33e6ff" stroke-width="2"/>
<rect x="603" y="91" width="16" height="16" fill="none" stroke="#33e6ff" stroke-width="2"/>
<rect x="603" y="109" width="16" height="16" fill="none" stroke="#33e6ff" stroke-width="2"/>
<rect x="691" y="37" width="16" height="16" fill="none" stroke="#33e6ff" stroke-width="2"/>
<rect x="709" y="37" width="16" height="16" fill="none" stroke="#33e6ff" stroke-width="2"/>
<rect x="727" y="37" width="16" height="16" fill="none" stroke="#33e6ff" stroke-width="2"/>
<rect x="673" y="55" width="16" height="16" fill="none" stroke="#33e6ff" stroke-width="2"/>
<rect x="745" y="55" width="16" height="16" fill="none" stroke="#33e6ff" stroke-width="2"/>
<rect x="673" y="73" width="16" height="16" fill="none" stroke="#33e6ff" stroke-width="2"/>
<rect x="691" y="73" width="16" height="16" fill="none" stroke="#33e6ff" stroke-width="2"/>
<rect x="709" y="73" width="16" height="16" fill="none" stroke="#33e6ff" stroke-width="2"/>
<rect x="727" y="73" width="16" height="16" fill="none" stroke="#33e6ff" stroke-width="2"/>
<rect x="745" y="73" width="16" height="16" fill="none" stroke="#33e6ff" stroke-width="2"/>
<rect x="673" y="91" width="16" height="16" fill="none" stroke="#33e6ff" stroke-width="2"/>
<rect x="745" y="91" width="16" height="16" fill="none" stroke="#33e6ff" stroke-width="2"/>
<rect x="673" y="109" width="16" height="16" fill="none" stroke="#33e6ff" stroke-width="2"/>
<rect x="745" y="109" width="16" height="16" fill="none" stroke="#33e6ff" stroke-width="2"/>
<rect x="43" y="43" width="16" height="16" fill="none" stroke="#ff5577" stroke-width="2"/>
<rect x="43" y="61" width="16" height="16" fill="none" stroke="#ff5577" stroke-width="2"/>
<rect x="43" y="79" width="16" height="16" fill="none" stroke="#ff5577" stroke-width="2"/>
<rect x="43" y="97" width="16" height="16" fill="none" stroke="#ff5577" stroke-width="2"/>
<rect x="43" y="115" width="16" height="16" fill="none" stroke="#ff5577" stroke-width="2"/>
<rect x="61" y="115" width="16" height="16" fill="none" stroke="#ff5577" stroke-width="2"/>
<rect x="79" y="115" width="16" height="16" fill="none" stroke="#ff5577" stroke-width="2"/>
<rect x="97" y="115" width="16" height="16" fill="none" stroke="#ff5577" stroke-width="2"/>
<rect x="115" y="115" width="16" height="16" fill="none" stroke="#ff5577" stroke-width="2"/>
<rect x="167" y="43" width="16" height="16" fill="none" stroke="#ff5577" stroke-width="2"/>
<rect x="185" y="43" width="16" height="16" fill="none" stroke="#ff5577" stroke-width="2"/>
<rect x="203" y="43" width="16" height="16" fill="none" stroke="#ff5577" stroke-width="2"/>
<rect x="149" y="61" width="16" height="16" fill="none" stroke="#ff5577" stroke-width="2"/>
<rect x="221" y="61" width="16" height="16" fill="none" stroke="#ff5577" stroke-width="2"/>
<rect x="149" y="79" width="16" height="16" fill="none" stroke="#ff5577" stroke-width="2"/>
<rect x="167" y="79" width="16" height="16" fill="none" stroke="#ff5577" stroke-width="2"/>
<rect x="185" y="79" width="16" height="16" fill="none" stroke="#ff5577" stroke-width="2"/>
<rect x="203" y="79" width="16" height="16" fill="none" stroke="#ff5577" stroke-width="2"/>
<rect x="221" y="79" width="16" height="16" fill="none" stroke="#ff5577" stroke-width="2"/>
<rect x="149" y="97" width="16" height="16" fill="none" stroke="#ff5577" stroke-width="2"/>
<rect x="221" y="97" width="16" height="16" fill="none" stroke="#ff5577" stroke-width="2"/>
<rect x="149" y="115" width="16" height="16" fill="none" stroke="#ff5577" stroke-width="2"/>
<rect x="221" y="115" width="16" height="16" fill="none" stroke="#ff5577" stroke-width="2"/>
<rect x="255" y="43" width="16" height="16" fill="none" stroke="#ff5577" stroke-width="2"/>
<rect x="327" y="43" width="16" height="16" fill="none" stroke="#ff5577" stroke-width="2"/>
<rect x="255" y="61" width="16" height="16" fill="none" stroke="#ff5577" stroke-width="2"/>
<rect x="327" y="61" width="16" height="16" fill="none" stroke="#ff5577" stroke-width="2"/>
<rect x="255" y="79" width="16" height="16" fill="none" stroke="#ff5577" stroke-width="2"/>
<rect x="327" y="79" width="16" height="16" fill="none" stroke="#ff5577" stroke-width="2"/>
<rect x="273" y="97" width="16" height="16" fill="none" stroke="#ff5577" stroke-width="2"/>
<rect x="309" y="97" width="16" height="16" fill="none" stroke="#ff5577" stroke-width="2"/>
<rect x="291" y="115" width="16" height="16" fill="none" stroke="#ff5577" stroke-width="2"/>
<rect x="379" y="43" width="16" height="16" fill="none" stroke="#ff5577" stroke-width="2"/>
<rect x="397" y="43" width="16" height="16" fill="none" stroke="#ff5577" stroke-width="2"/>
<rect x="415" y="43" width="16" height="16" fill="none" stroke="#ff5577" stroke-width="2"/>
<rect x="361" y="61" width="16" height="16" fill="none" stroke="#ff5577" stroke-width="2"/>
<rect x="433" y="61" width="16" height="16" fill="none" stroke="#ff5577" stroke-width="2"/>
<rect x="361" y="79" width="16" height="16" fill="none" stroke="#ff5577" stroke-width="2"/>
<rect x="379" y="79" width="16" height="16" fill="none" stroke="#ff5577" stroke-width="2"/>
<rect x="397" y="79" width="16" height="16" fill="none" stroke="#ff5577" stroke-width="2"/>
<rect x="415" y="79" width="16" height="16" fill="none" stroke="#ff5577" stroke-width="2"/>
<rect x="433" y="79" width="16" height="16" fill="none" stroke="#ff5577" stroke-width="2"/>
<rect x="361" y="97" width="16" height="16" fill="none" stroke="#ff5577" stroke-width="2"/>
<rect x="433" y="97" width="16" height="16" fill="none" stroke="#ff5577" stroke-width="2"/>
<rect x="361" y="115" width="16" height="16" fill="none" stroke="#ff5577" stroke-width="2"/>
<rect x="433" y="115" width="16" height="16" fill="none" stroke="#ff5577" stroke-width="2"/>
<rect x="467" y="43" width="16" height="16" fill="none" stroke="#ff5577" stroke-width="2"/>
<rect x="539" y="43" width="16" height="16" fill="none" stroke="#ff5577" stroke-width="2"/>
<rect x="467" y="61" width="16" height="16" fill="none" stroke="#ff5577" stroke-width="2"/>
<rect x="485" y="61" width="16" height="16" fill="none" stroke="#ff5577" stroke-width="2"/>
<rect x="539" y="61" width="16" height="16" fill="none" stroke="#ff5577" stroke-width="2"/>
<rect x="467" y="79" width="16" height="16" fill="none" stroke="#ff5577" stroke-width="2"/>
<rect x="503" y="79" width="16" height="16" fill="none" stroke="#ff5577" stroke-width="2"/>
<rect x="539" y="79" width="16" height="16" fill="none" stroke="#ff5577" stroke-width="2"/>
<rect x="467" y="97" width="16" height="16" fill="none" stroke="#ff5577" stroke-width="2"/>
<rect x="521" y="97" width="16" height="16" fill="none" stroke="#ff5577" stroke-width="2"/>
<rect x="539" y="97" width="16" height="16" fill="none" stroke="#ff5577" stroke-width="2"/>
<rect x="467" y="115" width="16" height="16" fill="none" stroke="#ff5577" stroke-width="2"/>
<rect x="539" y="115" width="16" height="16" fill="none" stroke="#ff5577" stroke-width="2"/>
<rect x="573" y="43" width="16" height="16" fill="none" stroke="#ff5577" stroke-width="2"/>
<rect x="645" y="43" width="16" height="16" fill="none" stroke="#ff5577" stroke-width="2"/>
<rect x="573" y="61" width="16" height="16" fill="none" stroke="#ff5577" stroke-width="2"/>
<rect x="645" y="61" width="16" height="16" fill="none" stroke="#ff5577" stroke-width="2"/>
<rect x="591" y="79" width="16" height="16" fill="none" stroke="#ff5577" stroke-width="2"/>
<rect x="627" y="79" width="16" height="16" fill="none" stroke="#ff5577" stroke-width="2"/>
<rect x="609" y="97" width="16" height="16" fill="none" stroke="#ff5577" stroke-width="2"/>
<rect x="609" y="115" width="16" height="16" fill="none" stroke="#ff5577" stroke-width="2"/>
<rect x="697" y="43" width="16" height="16" fill="none" stroke="#ff5577" stroke-width="2"/>
<rect x="715" y="43" width="16" height="16" fill="none" stroke="#ff5577" stroke-width="2"/>
<rect x="733" y="43" width="16" height="16" fill="none" stroke="#ff5577" stroke-width="2"/>
<rect x="679" y="61" width="16" height="16" fill="none" stroke="#ff5577" stroke-width="2"/>
<rect x="751" y="61" width="16" height="16" fill="none" stroke="#ff5577" stroke-width="2"/>
<rect x="679" y="79" width="16" height="16" fill="none" stroke="#ff5577" stroke-width="2"/>
<rect x="697" y="79" width="16" height="16" fill="none" stroke="#ff5577" stroke-width="2"/>
<rect x="715" y="79" width="16" height="16" fill="none" stroke="#ff5577" stroke-width="2"/>
<rect x="733" y="79" width="16" height="16" fill="none" stroke="#ff5577" stroke-width="2"/>
<rect x="751" y="79" width="16" height="16" fill="none" stroke="#ff5577" stroke-width="2"/>
<rect x="679" y="97" width="16" height="16" fill="none" stroke="#ff5577" stroke-width="2"/>
<rect x="751" y="97" width="16" height="16" fill="none" stroke="#ff5577" stroke-width="2"/>
<rect x="679" y="115" width="16" height="16" fill="none" stroke="#ff5577" stroke-width="2"/>
<rect x="751" y="115" width="16" height="16" fill="none" stroke="#ff5577" stroke-width="2"/>
<rect x="40" y="40" width="16" height="16" fill="#f6c9e3" stroke="#14151f" stroke-width="1.5"/>
<rect x="40" y="58" width="16" height="16" fill="#f6c9e3" stroke="#14151f" stroke-width="1.5"/>
<rect x="40" y="76" width="16" height="16" fill="#f6c9e3" stroke="#14151f" stroke-width="1.5"/>
<rect x="40" y="94" width="16" height="16" fill="#f6c9e3" stroke="#14151f" stroke-width="1.5"/>
<rect x="40" y="112" width="16" height="16" fill="#f6c9e3" stroke="#14151f" stroke-width="1.5"/>
<rect x="58" y="112" width="16" height="16" fill="#f6c9e3" stroke="#14151f" stroke-width="1.5"/>
<rect x="76" y="112" width="16" height="16" fill="#f6c9e3" stroke="#14151f" stroke-width="1.5"/>
<rect x="94" y="112" width="16" height="16" fill="#f6c9e3" stroke="#14151f" stroke-width="1.5"/>
<rect x="112" y="112" width="16" height="16" fill="#f6c9e3" stroke="#14151f" stroke-width="1.5"/>
<rect x="164" y="40" width="16" height="16" fill="#f6c9e3" stroke="#14151f" stroke-width="1.5"/>
<rect x="182" y="40" width="16" height="16" fill="#f6c9e3" stroke="#14151f" stroke-width="1.5"/>
<rect x="200" y="40" width="16" height="16" fill="#f6c9e3" stroke="#14151f" stroke-width="1.5"/>
<rect x="146" y="58" width="16" height="16" fill="#f6c9e3" stroke="#14151f" stroke-width="1.5"/>
<rect x="218" y="58" width="16" height="16" fill="#f6c9e3" stroke="#14151f" stroke-width="1.5"/>
<rect x="146" y="76" width="16" height="16" fill="#f6c9e3" stroke="#14151f" stroke-width="1.5"/>
<rect x="164" y="76" width="16" height="16" fill="#f6c9e3" stroke="#14151f" stroke-width="1.5"/>
<rect x="182" y="76" width="16" height="16" fill="#f6c9e3" stroke="#14151f" stroke-width="1.5"/>
<rect x="200" y="76" width="16" height="16" fill="#f6c9e3" stroke="#14151f" stroke-width="1.5"/>
<rect x="218" y="76" width="16" height="16" fill="#f6c9e3" stroke="#14151f" stroke-width="1.5"/>
<rect x="146" y="94" width="16" height="16" fill="#f6c9e3" stroke="#14151f" stroke-width="1.5"/>
<rect x="218" y="94" width="16" height="16" fill="#f6c9e3" stroke="#14151f" stroke-width="1.5"/>
<rect x="146" y="112" width="16" height="16" fill="#f6c9e3" stroke="#14151f" stroke-width="1.5"/>
<rect x="218" y="112" width="16" height="16" fill="#f6c9e3" stroke="#14151f" stroke-width="1.5"/>
<rect x="252" y="40" width="16" height="16" fill="#f6c9e3" stroke="#14151f" stroke-width="1.5"/>
<rect x="324" y="40" width="16" height="16" fill="#f6c9e3" stroke="#14151f" stroke-width="1.5"/>
<rect x="252" y="58" width="16" height="16" fill="#f6c9e3" stroke="#14151f" stroke-width="1.5"/>
<rect x="324" y="58" width="16" height="16" fill="#f6c9e3" stroke="#14151f" stroke-width="1.5"/>
<rect x="252" y="76" width="16" height="16" fill="#f6c9e3" stroke="#14151f" stroke-width="1.5"/>
<rect x="324" y="76" width="16" height="16" fill="#f6c9e3" stroke="#14151f" stroke-width="1.5"/>
<rect x="270" y="94" width="16" height="16" fill="#f6c9e3" stroke="#14151f" stroke-width="1.5"/>
<rect x="306" y="94" width="16" height="16" fill="#f6c9e3" stroke="#14151f" stroke-width="1.5"/>
<rect x="288" y="112" width="16" height="16" fill="#f6c9e3" stroke="#14151f" stroke-width="1.5"/>
<rect x="376" y="40" width="16" height="16" fill="#f6c9e3" stroke="#14151f" stroke-width="1.5"/>
<rect x="394" y="40" width="16" height="16" fill="#f6c9e3" stroke="#14151f" stroke-width="1.5"/>
<rect x="412" y="40" width="16" height="16" fill="#f6c9e3" stroke="#14151f" stroke-width="1.5"/>
<rect x="358" y="58" width="16" height="16" fill="#f6c9e3" stroke="#14151f" stroke-width="1.5"/>
<rect x="430" y="58" width="16" height="16" fill="#f6c9e3" stroke="#14151f" stroke-width="1.5"/>
<rect x="358" y="76" width="16" height="16" fill="#f6c9e3" stroke="#14151f" stroke-width="1.5"/>
<rect x="376" y="76" width="16" height="16" fill="#f6c9e3" stroke="#14151f" stroke-width="1.5"/>
<rect x="394" y="76" width="16" height="16" fill="#f6c9e3" stroke="#14151f" stroke-width="1.5"/>
<rect x="412" y="76" width="16" height="16" fill="#f6c9e3" stroke="#14151f" stroke-width="1.5"/>
<rect x="430" y="76" width="16" height="16" fill="#f6c9e3" stroke="#14151f" stroke-width="1.5"/>
<rect x="358" y="94" width="16" height="16" fill="#f6c9e3" stroke="#14151f" stroke-width="1.5"/>
<rect x="430" y="94" width="16" height="16" fill="#f6c9e3" stroke="#14151f" stroke-width="1.5"/>
<rect x="358" y="112" width="16" height="16" fill="#f6c9e3" stroke="#14151f" stroke-width="1.5"/>
<rect x="430" y="112" width="16" height="16" fill="#f6c9e3" stroke="#14151f" stroke-width="1.5"/>
<rect x="464" y="40" width="16" height="16" fill="#f6c9e3" stroke="#14151f" stroke-width="1.5"/>
<rect x="536" y="40" width="16" height="16" fill="#f6c9e3" stroke="#14151f" stroke-width="1.5"/>
<rect x="464" y="58" width="16" height="16" fill="#f6c9e3" stroke="#14151f" stroke-width="1.5"/>
<rect x="482" y="58" width="16" height="16" fill="#f6c9e3" stroke="#14151f" stroke-width="1.5"/>
<rect x="536" y="58" width="16" height="16" fill="#f6c9e3" stroke="#14151f" stroke-width="1.5"/>
<rect x="464" y="76" width="16" height="16" fill="#f6c9e3" stroke="#14151f" stroke-width="1.5"/>
<rect x="500" y="76" width="16" height="16" fill="#f6c9e3" stroke="#14151f" stroke-width="1.5"/>
<rect x="536" y="76" width="16" height="16" fill="#f6c9e3" stroke="#14151f" stroke-width="1.5"/>
<rect x="464" y="94" width="16" height="16" fill="#f6c9e3" stroke="#14151f" stroke-width="1.5"/>
<rect x="518" y="94" width="16" height="16" fill="#f6c9e3" stroke="#14151f" stroke-width="1.5"/>
<rect x="536" y="94" width="16" height="16" fill="#f6c9e3" stroke="#14151f" stroke-width="1.5"/>
<rect x="464" y="112" width="16" height="16" fill="#f6c9e3" stroke="#14151f" stroke-width="1.5"/>
<rect x="536" y="112" width="16" height="16" fill="#f6c9e3" stroke="#14151f" stroke-width="1.5"/>
<rect x="570" y="40" width="16" height="16" fill="#f6c9e3" stroke="#14151f" stroke-width="1.5"/>
<rect x="642" y="40" width="16" height="16" fill="#f6c9e3" stroke="#14151f" stroke-width="1.5"/>
<rect x="570" y="58" width="16" height="16" fill="#f6c9e3" stroke="#14151f" stroke-width="1.5"/>
<rect x="642" y="58" width="16" height="16" fill="#f6c9e3" stroke="#14151f" stroke-width="1.5"/>
<rect x="588" y="76" width="16" height="16" fill="#f6c9e3" stroke="#14151f" stroke-width="1.5"/>
<rect x="624" y="76" width="16" height="16" fill="#f6c9e3" stroke="#14151f" stroke-width="1.5"/>
<rect x="606" y="94" width="16" height="16" fill="#f6c9e3" stroke="#14151f" stroke-width="1.5"/>
<rect x="606" y="112" width="16" height="16" fill="#f6c9e3" stroke="#14151f" stroke-width="1.5"/>
<rect x="694" y="40" width="16" height="16" fill="#f6c9e3" stroke="#14151f" stroke-width="1.5"/>
<rect x="712" y="40" width="16" height="16" fill="#f6c9e3" stroke="#14151f" stroke-width="1.5"/>
<rect x="730" y="40" width="16" height="16" fill="#f6c9e3" stroke="#14151f" stroke-width="1.5"/>
<rect x="676" y="58" width="16" height="16" fill="#f6c9e3" stroke="#14151f" stroke-width="1.5"/>
<rect x="748" y="58" width="16" height="16" fill="#f6c9e3" stroke="#14151f" stroke-width="1.5"/>
<rect x="676" y="76" width="16" height="16" fill="#f6c9e3" stroke="#14151f" stroke-width="1.5"/>
<rect x="694" y="76" width="16" height="16" fill="#f6c9e3" stroke="#14151f" stroke-width="1.5"/>
<rect x="712" y="76" width="16" height="16" fill="#f6c9e3" stroke="#14151f" stroke-width="1.5"/>
<rect x="730" y="76" width="16" height="16" fill="#f6c9e3" stroke="#14151f" stroke-width="1.5"/>
<rect x="748" y="76" width="16" height="16" fill="#f6c9e3" stroke="#14151f" stroke-width="1.5"/>
<rect x="676" y="94" width="16" height="16" fill="#f6c9e3" stroke="#14151f" stroke-width="1.5"/>
<rect x="748" y="94" width="16" height="16" fill="#f6c9e3" stroke="#14151f" stroke-width="1.5"/>
<rect x="676" y="112" width="16" height="16" fill="#f6c9e3" stroke="#14151f" stroke-width="1.5"/>
<rect x="748" y="112" width="16" height="16" fill="#f6c9e3" stroke="#14151f" stroke-width="1.5"/>
</svg>
